<?xml version="1.0" encoding="utf-8"?>
<!-- Generator: Adobe Illustrator 16.0.0, SVG Export Plug-In . SVG Version: 6.00 Build 0)  -->
<!DOCTYPE svg PUBLIC "-//W3C//DTD SVG 1.0//EN" "http://www.w3.org/TR/2001/REC-SVG-20010904/DTD/svg10.dtd">
<svg version="1.0" id="Layer_1" xmlns="http://www.w3.org/2000/svg" xmlns:xlink="http://www.w3.org/1999/xlink" x="0px" y="0px"
	 width="708.66px" height="708.66px" viewBox="0 0 708.66 708.66" enable-background="new 0 0 708.66 708.66" xml:space="preserve">
<g>
	<path fill="none" stroke="#373431" stroke-width="12" stroke-linecap="round" stroke-linejoin="round" stroke-miterlimit="10" d="
		M516.028,334.708c-14.307-14.283-37.477-14.283-51.783,0.024c-14.307,14.307-14.307,37.501-0.024,51.784
		c0,0.024,0.024,0.024,0.024,0.062l-77.688,77.675c-0.049,0-0.049-0.024-0.049-0.049c-14.307-14.282-37.5-14.282-51.783,0.024
		c-14.308,14.332-14.308,37.501-0.025,51.783c14.283,14.319,37.476,14.319,51.784,0v-0.012l0.049,0.049l129.521-129.532
		l-0.049-0.049C530.312,372.16,530.312,348.978,516.028,334.708z"/>
	<path fill="none" stroke="#373431" stroke-width="12" stroke-linecap="round" stroke-linejoin="round" stroke-miterlimit="10" d="
		M360.604,490.132l129.545-129.508L360.604,490.132z"/>
	
		<polygon fill="none" stroke="#373431" stroke-width="12" stroke-linecap="round" stroke-linejoin="round" stroke-miterlimit="10" points="
		464.196,386.491 386.46,464.203 101.516,179.271 88.577,88.595 179.253,101.522 	"/>
	<path fill="none" stroke="#373431" stroke-width="12" stroke-linecap="round" stroke-linejoin="round" stroke-miterlimit="10" d="
		M88.577,88.595l207.231,207.232L88.577,88.595z"/>
	<path fill="none" stroke="#373431" stroke-width="12" stroke-linecap="round" stroke-linejoin="round" stroke-miterlimit="10" d="
		M347.617,347.623l77.736,77.712L347.617,347.623z"/>
	<path fill="none" stroke="#373431" stroke-width="12" stroke-linecap="round" stroke-linejoin="round" stroke-miterlimit="10" d="
		M606.681,541.915c17.896,17.884,17.896,46.877,0,64.772c-17.871,17.871-46.877,17.871-64.748-0.013
		c-17.896-17.883-17.896-46.876,0-64.76C559.804,524.019,588.81,524.019,606.681,541.915z"/>
	<path fill="none" stroke="#373431" stroke-width="12" stroke-linecap="round" stroke-linejoin="round" stroke-miterlimit="10" d="
		M587.247,561.325c7.178,7.152,7.152,18.75,0,25.903c-7.179,7.166-18.751,7.179-25.881,0c-7.152-7.153-7.178-18.751-0.023-25.903
		C568.521,554.196,580.093,554.184,587.247,561.325z"/>
	<path fill="none" stroke="#373431" stroke-width="12" stroke-linecap="round" stroke-linejoin="round" stroke-miterlimit="10" d="
		M541.933,541.915c8.814-8.826,20.361-13.27,31.959-13.367l-99.979-99.99l-45.338,45.338l99.979,99.979
		C528.651,562.276,533.095,550.741,541.933,541.915z"/>
	<path fill="none" stroke="#373431" stroke-width="12" stroke-linecap="round" stroke-linejoin="round" stroke-miterlimit="10" d="
		M460.974,506.294l19.41-71.23L460.974,506.294z"/>
	<path fill="none" stroke="#373431" stroke-width="12" stroke-linecap="round" stroke-linejoin="round" stroke-miterlimit="10" d="
		M486.878,532.198l19.409-71.242L486.878,532.198z"/>
	<path fill="none" stroke="#373431" stroke-width="12" stroke-linecap="round" stroke-linejoin="round" stroke-miterlimit="10" d="
		M512.782,558.103l19.434-71.219L512.782,558.103z"/>
</g>
</svg>
