<svg xmlns="http://www.w3.org/2000/svg" viewBox="0 0 32 32"><title>translate android app aplication phone</title><g id="translate_android_app_aplication_phone" data-name="translate android app aplication phone"><path d="M30.56,8.47a8,8,0,0,0-7-7,64.29,64.29,0,0,0-15.06,0,8,8,0,0,0-7,7,64.29,64.29,0,0,0,0,15.06,8,8,0,0,0,7,7,64.29,64.29,0,0,0,15.06,0,8,8,0,0,0,7-7A64.29,64.29,0,0,0,30.56,8.47ZM3.42,23.3a63.65,63.65,0,0,1,0-14.6A6,6,0,0,1,8.7,3.42a63.65,63.65,0,0,1,14.6,0A6,6,0,0,1,26.64,5L5,26.64A6,6,0,0,1,3.42,23.3Zm25.16,0a6,6,0,0,1-5.28,5.28,63.65,63.65,0,0,1-14.6,0,6,6,0,0,1-2.17-.7L27.88,6.53a6,6,0,0,1,.7,2.17A63.65,63.65,0,0,1,28.58,23.3Z"/><path d="M21.89,16.55a1,1,0,0,0-1.78,0l-4,8a1,1,0,0,0,1.78.9L18.62,24h4.76l.73,1.45a1,1,0,1,0,1.78-.9ZM19.62,22,21,19.24,22.38,22Z"/><path d="M6,9h.54l2.14,2.5L6.24,14.35a1,1,0,1,0,1.52,1.3L10,13l2.24,2.61a1,1,0,0,0,1.52-1.3L11.32,11.5,13.46,9H14a1,1,0,0,0,0-2H11V6A1,1,0,0,0,9,6V7H6A1,1,0,0,0,6,9Zm4,1L9.17,9h1.66Z"/></g></svg>